<?xml version="1.0" encoding="UTF-8"?><svg id="Layer_1" xmlns="http://www.w3.org/2000/svg" viewBox="0 0 262.00983 53.92004"><defs><style>.cls-1{fill:#267592;}.cls-2{fill:#60b246;}</style></defs><g><path class="cls-1" d="m106.32446,20.09827c-1.92334,3.60248-2.39111,5.26062-2.39111,5.26062h-.20807s-.46777-1.65814-2.39111-5.26062l-5.30237-9.94958h-7.69324v33.67981h7.79742v-13.38037c0-3.77393-.31201-5.604-.31201-5.604h.20782s.83185,2.40198,2.33929,4.97491l3.7428,6.40448h3.43085l3.7428-6.40448c1.50745-2.57294,2.33929-4.97491,2.33929-4.97491h.20782s-.31201,1.83008-.31201,5.604v13.38037h7.79742V10.14868h-7.69324l-5.30237,9.94958Z"/><path class="cls-1" d="m133.77045,10.14868l-11.07214,33.67981h8.16119l1.9234-6.28967h11.28027l2.02728,6.28967h8.36932l-11.17639-33.67981h-9.51294Zm1.19574,20.24225l.83185-2.63055c1.71527-5.4892,2.495-9.77789,2.495-9.77789h.20789s.62396,4.23157,2.44318,9.83502l.83185,2.57343h-6.80975Z"/><path class="cls-1" d="m169.17035,17.06769c3.27484,0,4.5744,2.00128,5.40601,5.14636l7.5896-4.05988c-2.23517-5.43231-6.23792-8.69171-12.78778-8.69171-9.61682,0-15.17883,6.23279-15.17883,17.44031s5.82196,17.61194,14.2431,17.61194c7.0697,0,10.65649-2.63007,13.46356-7.94836l-6.80981-4.2887c-1.09149,3.0882-3.27478,4.63208-5.71802,4.63208-4.78247,0-7.17358-3.60248-7.17358-9.77844,0-6.28967,2.651-10.0636,6.96576-10.0636Z"/><path class="cls-1" d="m197.5,16.55292c1.87158,0,3.79492,1.08649,4.05487,3.8313l7.79736-2.28717c-.67584-6.40448-5.51019-8.69171-12.00793-8.69171-5.56232,0-11.12433,2.51605-11.12433,10.34979,0,5.54663,2.49506,8.7486,10.29248,11.37915,3.63885,1.20105,4.67859,2.05865,4.67859,4.0025,0,1.9444-1.55957,2.802-3.58685,2.802-2.75519,0-4.93848-2.17291-5.51019-5.20349l-7.0697,3.7168c1.7674,6.00397,5.97797,8.06262,11.95587,8.06262,6.758,0,12.32001-2.63007,12.32001-10.17841,0-6.5188-3.06696-8.97742-10.03253-11.32178-3.37897-1.02954-4.78247-1.94434-4.78247-3.88843,0-1.88696,1.4035-2.57318,3.01483-2.57318Z"/><path class="cls-1" d="m230.24915,10.14868l-3.17114,7.14783c-2.07916,4.57416-2.33905,7.77667-2.33905,7.77667h-.20813s-.36383-3.0882-2.39111-7.77667l-3.11902-7.14783h-8.88892l10.60443,22.98712v10.69269h7.79736v-10.69269l9.92889-22.98712h-8.21332Z"/><path class="cls-1" d="m251.92523,23.01453c-3.37897-1.02954-4.78247-1.94434-4.78247-3.88843,0-1.88696,1.4035-2.57318,3.01489-2.57318,1.87152,0,3.79486,1.08649,4.05481,3.8313l7.79736-2.28717c-.67584-6.40448-5.51013-8.69171-12.00793-8.69171-5.56226,0-11.12427,2.51605-11.12427,10.34979,0,5.54663,2.495,8.7486,10.29242,11.37915,3.63892,1.20105,4.67859,2.05865,4.67859,4.0025,0,1.9444-1.55951,2.802-3.58685,2.802-2.75519,0-4.93848-2.17291-5.51013-5.20349l-7.06976,3.7168c1.7674,6.00397,5.97797,8.06262,11.95593,8.06262,6.75793,0,12.31995-2.63007,12.31995-10.17841,0-6.5188-3.06696-8.97742-10.03253-11.32178Z"/></g><path class="cls-2" d="m62.23309,4.75751l-1.02496,1.77539c9.77069,4.50092,16.1817,11.97656,16.1817,20.42712,0,13.72375-16.89386,24.88873-37.65924,24.88873-1.40149,0-2.78265-.05652-4.14459-.15582.00354.02576.00543.05029.00885.07599-.92358-6.95148-7.92059-18.52411-5.87378-22.06934l-1.85699,3.21643c-2.25861,3.91199,5.64081,15.26349,4.72345,20.56299,1.01416.12579,2.04242.22302,3.08167.29517,1.33624.09277,2.68951.14587,4.0614.14587,21.90747,0,39.73053-12.09418,39.73053-26.96002,0-9.20044-6.83118-17.33533-17.22803-22.20251Z"/><g><path class="cls-1" d="m35.87683,19.43195c.052-.34644-.383.26886-.383.26886l-1.14758,1.98773c-2.35968,4.0871,7.58057,13.90387,5.22351,17.98639l1.85699-3.21649c2.18872-3.79095-6.2251-12.52545-5.54993-17.02649Z"/><path class="cls-1" d="m47.29846,25.46289l-4.80609-2.77478c-.19739-.11395-.44977-.04633-.56366.15106-.11395.19733-.04633.44971.151.5636l4.80609,2.77484c.19714.11377.44971.04657.56384-.15106.11377-.19708.0459-.44983-.15118-.56366Z"/><path class="cls-1" d="m43.53455,27.54138l-2.88318-1.66461c-.19733-.11395-.44971-.04633-.56366.151-.11395.19739-.04633.44977.15106.56372l2.88318,1.66455c.19775.1142.45093.04742.565-.15009.11389-.19733.04535-.45044-.1524-.56458Z"/><path class="cls-1" d="m43.00024,21.80853l2.88446,1.66534c.19733.11389.44977.04645.56378-.15112.11407-.19751.0462-.44977-.15112-.56372l-2.8844-1.66534c-.19739-.11395-.44983-.04633-.56378.15106s-.04633.44983.15106.56378Z"/><path class="cls-1" d="m46.09357,26.89307l-4.52173-2.6106c-.19733-.11395-.44971-.04633-.56366.151-.11389.19733-.04633.44971.15106.56366l4.52173,2.6106c.19641.1134.44855.04602.56262-.15161.11407-.19751.04645-.44965-.15002-.56305Z"/></g><g><path class="cls-2" d="m40.52222,36.54041l-4.52057-2.60999c-.19739-.11395-.44971-.04633-.56366.151-.11395.19739-.04633.44977.151.56366l4.52063,2.60999c.19751.11401.44971.04657.56378-.15106.11383-.19708.04633-.44958-.15118-.5636Z"/><path class="cls-2" d="m37.04382,38.78363l-2.88312-1.66455c-.19739-.11395-.44977-.04633-.56372.151-.11389.19739-.04633.44977.15106.56366l2.88312,1.66461c.19843.11456.45099.04742.56506-.15009.11389-.19733.04602-.45007-.1524-.56464Z"/><path class="cls-2" d="m36.50952,33.05084l2.88464,1.66541c.19733.11395.44958.04639.56366-.15118.11401-.19751.04639-.44971-.15094-.5636l-2.88464-1.66547c-.19739-.11395-.44977-.04633-.56378.15106-.11395.19739-.04633.44983.15106.56378Z"/><path class="cls-2" d="m39.60278,38.13531l-4.52167-2.6106c-.19733-.11389-.44971-.04626-.5636.15106-.11395.19733-.04633.44971.151.56366l4.52167,2.6106c.1969.11365.44855.04602.56268-.15161.11407-.19757.04681-.4494-.15009-.56311Z"/></g><g><path class="cls-1" d="m34.77399,33.69812c.11395-.19739.04633-.44971-.151-.56366l-4.52063-2.60999c-.19708-.11377-.44989-.0462-.56372.15088-.11407.19763-.04602.45001.15112.56384l4.52063,2.60992c.19733.11395.44971.04633.5636-.151Z"/><path class="cls-1" d="m29.89886,34.65851c-.19775-.1142-.45123-.047-.56519.15033-.11401.19751-.04523.4502.15253.56433l2.88318,1.66461c.19733.11395.44971.04633.56366-.151.11395-.19739.04633-.44977-.15106-.56372l-2.88312-1.66455Z"/><path class="cls-1" d="m35.69452,32.10376c.11395-.19739.04633-.44983-.15106-.56378l-2.8844-1.66534c-.19733-.11389-.44971-.04651-.56378.151-.11407.19757-.04626.44989.15106.56384l2.8844,1.66534c.19739.11395.44983.04633.56378-.15106Z"/><path class="cls-1" d="m33.85352,35.29242c.11395-.19733.04633-.44971-.151-.56366l-4.52173-2.6106c-.19647-.1134-.44861-.04596-.56268.15161-.11407.19763-.04639.44965.15002.56305l4.52173,2.61066c.19739.11395.44971.04633.56366-.15106Z"/><path class="cls-1" d="m46.7854,2.51562l1.11957-1.93909c-2.63934-.3761-5.37274-.57654-8.17438-.57654C17.82306,0,0,12.09418,0,26.96002c0,7.45685,4.48602,14.21521,11.72107,19.10071,1.02576.69263,2.11151,1.34338,3.24286,1.95734,3.54156-6.05823,22.30054-4.35028,24.6062-8.34381l1.85687-3.21625c-2.11731,3.6673-21.69873,2.98718-28.30774,8.13873.01007-.00787.01904-.0163.02924-.02417-6.83899-4.50848-11.07721-10.73932-11.07721-17.61255C2.07129,13.23627,18.96515,2.07129,39.73059,2.07129c2.41168,0,4.76794.15668,7.05481.44434Z"/></g><path class="cls-2" d="m57.29974,8.10529c-.74548-.43042-1.69873-.17499-2.12909.5705-.00256.00446-.00372.00934-.00623.01379l-5.6319-1.50958c.00427-.54297-.26868-1.07281-.77246-1.36371-.74548-.43042-1.69873-.17499-2.12915.5705-.25763.44629-.26508.96545-.07312,1.40393l-4.76099,3.74286c-.05255-.04004-.10278-.0824-.16156-.11633-.74548-.43036-1.69873-.17493-2.12915.57056-.43036.74548-.17499,1.69873.57056,2.12909.47461.27405,1.03235.26788,1.48682.03644l5.23828,5.9223c-.02045.03033-.04517.05634-.06372.0885-.43036.74548-.17493,1.69873.57056,2.12915s1.69873.17499,2.12909-.5705c.43042-.74548.17499-1.69873-.5705-2.12915-.47461-.27399-1.03223-.26788-1.48676-.03644l-5.23834-5.9223c.02045-.03033.0451-.05634.06366-.0885.03833-.06635.0647-.1358.09229-.20496l7.84302.99493-1.42432-5.80145c.24701-.13245.46344-.32892.61383-.58948.00262-.00458.00378-.00952.00635-.0141l5.63177,1.50964c-.00433.54303.26862,1.07306.77246,1.36395.74548.43042,1.69873.17499,2.12915-.5705.43036-.74548.17499-1.69873-.57056-2.12915Zm-14.9035,4.46564c-.01898-.14789-.05762-.29193-.11749-.42865l4.76117-3.74268c.05255.04004.10278.0824.16156.11633.24023.13867.50183.19904.76074.20184l1.1554,4.70551-6.72137-.85236Z"/><g><path class="cls-2" d="m39.27271,25.08075l-2.88312-1.66455c-.19843-.11456-.45123-.047-.56519.15033-.11401.19751-.0459.44983.15253.56439l2.88318,1.66455c.19733.11395.44971.04633.56366-.151.11395-.19739.04633-.44977-.15106-.56372Z"/><path class="cls-2" d="m56.0163,14.00488c-.97089-.56055-2.21234-.22791-2.77289.74298-.39471.68365-.33875,1.49719.06329,2.117-2.52942,1.24023-6.23291-.17725-8.9823-.29907-2.00598-.20752-4.1275-.17694-6.05463.59802-1.94092.77032-1.81189.86743-3.92322,4.52435.0921-.15948.20642-.29724.31079-.44489l5.12323,2.95789c.19739.11395.44971.04633.56366-.15106.11395-.19733.04633-.44971-.15106-.56366l-5.01025-2.89264c.24481-.26086.50952-.49866.7934-.71484l4.72473,2.72784c.19739.11395.44971.04633.56366-.151.11395-.19739.04633-.44971-.151-.56366l-4.37231-2.52435c.35358-.20367.72504-.37946,1.11163-.53107l3.76843,2.17578c.19739.11395.44983.04633.56378-.15106s.04633-.44983-.15106-.56378l-3.12842-1.80615c.81744-.21722,1.6684-.35071,2.52191-.38922,3.5415-.43323,9.41449,1.75519,12.50232-.62213.01996.01245.03589.02875.0564.04059.97089.56055,2.21234.22791,2.77289-.74298s.22791-2.21234-.74298-2.77289Z"/></g><circle class="cls-1" cx="49.67564" cy="13.79911" r="1.55864"/><path class="cls-2" d="m46.05259,28.44633c-2.35743,4.08319-15.82896.38282-18.18854,4.46973l1.85702-3.21645c2.24753-3.89284,14.57573-.72127,17.77932-3.93841.03217.13748-.05075.26536-.05075.26536l-1.39706,2.41978Z"/></svg>